<svg width="22" height="14" fill="none" xmlns="http://www.w3.org/2000/svg"><path d="M12.437.502c.254-.288.593-.447.944-.444.351.003.688.168.939.461.25.293.396.69.405 1.108.01.418-.118.824-.355 1.132L7.162 13.485a1.39 1.39 0 01-.44.375 1.166 1.166 0 01-1.06.023 1.364 1.364 0 01-.451-.355L.431 7.84a1.638 1.638 0 01-.314-.523 1.885 1.885 0 01-.019-1.26c.069-.2.17-.383.299-.536.128-.153.282-.274.45-.355a1.167 1.167 0 011.06.023c.165.088.315.215.439.373l3.783 4.499L12.4.55a.533.533 0 01.037-.048zM10.775 11.55l1.662 1.978c.128.153.282.273.45.354a1.167 1.167 0 001.06-.023c.165-.088.315-.216.439-.374l7.211-10.726c.13-.152.232-.334.301-.534a1.884 1.884 0 00-.012-1.26 1.643 1.643 0 00-.312-.526 1.343 1.343 0 00-.46-.34 1.16 1.16 0 00-1.058.061 1.41 1.41 0 00-.43.39l-6.274 9.51-.876-1.044-1.703 2.534h.002z" fill="#fff"/></svg>