<svg width="38" height="33" xmlns="http://www.w3.org/2000/svg"><path d="M1.535 0C1.128 0 .738.174.45.483.162.793 0 1.213 0 1.65c0 .438.162.857.45 1.167.288.31.678.483 1.085.483h3.409l4.029 17.325c.342 1.468 1.566 2.475 2.974 2.475h19.145c1.387 0 2.565-.99 2.928-2.426L38 4.95h-3.215L31.091 19.8H11.945L7.918 2.475a3.302 3.302 0 00-1.09-1.79A2.912 2.912 0 004.945 0H1.535zm27.637 23.1c-2.526 0-4.606 2.236-4.606 4.95S26.646 33 29.172 33c2.525 0 4.606-2.236 4.606-4.95s-2.08-4.95-4.606-4.95zm-13.819 0c-2.525 0-4.605 2.236-4.605 4.95S12.828 33 15.354 33c2.525 0 4.606-2.236 4.606-4.95s-2.08-4.95-4.607-4.95zM19.96 0v8.25h-4.607l6.142 6.6 6.141-6.6H23.03V0h-3.07zm-4.607 26.4c.867 0 1.536.72 1.536 1.65 0 .93-.67 1.65-1.535 1.65-.866 0-1.536-.72-1.536-1.65 0-.93.67-1.65 1.536-1.65zm13.819 0c.866 0 1.535.72 1.535 1.65 0 .93-.67 1.65-1.535 1.65-.866 0-1.536-.72-1.536-1.65 0-.93.67-1.65 1.536-1.65z"/></svg>