<svg width="38" height="33" viewBox="0 0 38 33" xmlns="http://www.w3.org/2000/svg">
<path d="M1.53535 6.95827e-05C1.12815 6.95827e-05 0.737629 0.173908 0.449695 0.483343C0.16176 0.792777 0 1.21246 0 1.65007C0 2.08767 0.16176 2.50736 0.449695 2.81679C0.737629 3.12622 1.12815 3.30006 1.53535 3.30006H4.94384L8.97261 20.625C9.31499 22.0935 10.5387 23.1 11.9466 23.1H31.0924C32.4789 23.1 33.6565 22.11 34.0204 20.6745L38 4.95006H34.785L31.0909 19.8H11.9451L7.91782 2.47506C7.75146 1.76429 7.36797 1.13408 6.82876 0.685336C6.28955 0.236595 5.62581 -0.00470733 4.94384 6.95827e-05H1.53535ZM29.1717 23.1C26.6461 23.1 24.5657 25.3358 24.5657 28.05C24.5657 30.7643 26.6461 33 29.1717 33C31.6974 33 33.7778 30.7643 33.7778 28.05C33.7778 25.3358 31.6974 23.1 29.1717 23.1ZM15.3535 23.1C12.8279 23.1 10.7475 25.3358 10.7475 28.05C10.7475 30.7643 12.8279 33 15.3535 33C17.8792 33 19.9596 30.7643 19.9596 28.05C19.9596 25.3358 17.8792 23.1 15.3535 23.1ZM19.9596 6.95827e-05V8.25005H15.3535L21.4949 14.85L27.6364 8.25005H23.0303V6.95827e-05H19.9596ZM15.3535 26.4C16.2195 26.4 16.8889 27.1194 16.8889 28.05C16.8889 28.9806 16.2195 29.7 15.3535 29.7C14.4876 29.7 13.8182 28.9806 13.8182 28.05C13.8182 27.1194 14.4876 26.4 15.3535 26.4ZM29.1717 26.4C30.0377 26.4 30.7071 27.1194 30.7071 28.05C30.7071 28.9806 30.0377 29.7 29.1717 29.7C28.3058 29.7 27.6364 28.9806 27.6364 28.05C27.6364 27.1194 28.3058 26.4 29.1717 26.4Z"/>
</svg>
