<svg width="22" height="14" viewBox="0 0 22 14" fill="none" xmlns="http://www.w3.org/2000/svg">
<path d="M12.4367 0.502349C12.6911 0.214089 13.0298 0.0547278 13.3811 0.0578909C13.7324 0.061054 14.069 0.226495 14.3198 0.519303C14.5705 0.812111 14.7159 1.20938 14.7252 1.62729C14.7345 2.0452 14.607 2.45106 14.3695 2.75923L7.16193 13.4848C7.03799 13.6436 6.88841 13.7711 6.72212 13.8596C6.55584 13.948 6.37626 13.9957 6.19414 13.9997C6.01202 14.0037 5.83108 13.964 5.66216 13.8829C5.49324 13.8018 5.33979 13.681 5.21099 13.5278L0.431207 7.84043C0.298098 7.69285 0.191335 7.51487 0.117286 7.31713C0.0432372 7.11939 0.00342047 6.90592 0.000210847 6.68947C-0.00299877 6.47302 0.0304645 6.25801 0.0986045 6.05728C0.166744 5.85656 0.268165 5.67421 0.396816 5.52114C0.525467 5.36806 0.678713 5.24738 0.847411 5.1663C1.01611 5.08522 1.1968 5.04541 1.37872 5.04922C1.56063 5.05304 1.74003 5.10042 1.90622 5.18853C2.07241 5.27664 2.22198 5.40367 2.34601 5.56206L6.12866 10.0608L12.4005 0.549636C12.4118 0.533042 12.4239 0.517251 12.4367 0.502349ZM10.7748 11.5503L12.4367 13.5278C12.5654 13.6807 12.7188 13.8012 12.8875 13.8821C13.0563 13.963 13.237 14.0026 13.4189 13.9986C13.6008 13.9946 13.7802 13.947 13.9463 13.8588C14.1124 13.7705 14.2619 13.6433 14.3858 13.4848L21.597 2.75923C21.7266 2.60705 21.829 2.42538 21.8982 2.22505C21.9674 2.02472 22.002 1.80985 21.9999 1.59326C21.9978 1.37668 21.959 1.16282 21.8859 0.964468C21.8127 0.766114 21.7068 0.587329 21.5743 0.438789C21.4418 0.29025 21.2855 0.175002 21.1148 0.0999279C20.944 0.0248542 20.7623 -0.00850602 20.5805 0.00184019C20.3986 0.0121864 20.2204 0.0660272 20.0565 0.160146C19.8925 0.254265 19.7462 0.386731 19.6262 0.549636L13.3525 10.0608L12.4764 9.01615L10.773 11.5503H10.7748Z" fill="white"/>
</svg>
