<?xml version="1.0" encoding="utf-8"?><svg viewBox="0 0 40 33" xmlns="http://www.w3.org/2000/svg" xmlns:xlink="http://www.w3.org/1999/xlink"><style>:root>svg{display:none}:root>svg:target{display:block}</style><svg viewBox="0 0 40 8" id="arrow-left" xmlns="http://www.w3.org/2000/svg"><path d="M.646 3.646a.5.5 0 000 .708l3.182 3.182a.5.5 0 10.708-.708L1.707 4l2.829-2.828a.5.5 0 10-.708-.708L.646 3.646zM40 3.5H1v1h39v-1z"/></svg><svg viewBox="0 0 40 8" id="arrow-right" xmlns="http://www.w3.org/2000/svg"><path d="M39.354 4.354a.5.5 0 000-.708L36.172.464a.5.5 0 10-.707.708L38.293 4l-2.828 2.828a.5.5 0 10.707.708l3.182-3.182zM0 4.5h39v-1H0v1z"/></svg><svg viewBox="0 0 38 33" id="cart" xmlns="http://www.w3.org/2000/svg"><path d="M1.535 0C1.128 0 .738.174.45.483.162.793 0 1.213 0 1.65c0 .438.162.857.45 1.167.288.31.678.483 1.085.483h3.409l4.029 17.325c.342 1.468 1.566 2.475 2.974 2.475h19.145c1.387 0 2.565-.99 2.928-2.426L38 4.95h-3.215L31.091 19.8H11.945L7.918 2.475a3.302 3.302 0 00-1.09-1.79A2.912 2.912 0 004.945 0H1.535zm27.637 23.1c-2.526 0-4.606 2.236-4.606 4.95S26.646 33 29.172 33c2.525 0 4.606-2.236 4.606-4.95s-2.08-4.95-4.606-4.95zm-13.819 0c-2.525 0-4.605 2.236-4.605 4.95S12.828 33 15.354 33c2.525 0 4.606-2.236 4.606-4.95s-2.08-4.95-4.607-4.95zM19.96 0v8.25h-4.607l6.142 6.6 6.141-6.6H23.03V0h-3.07zm-4.607 26.4c.867 0 1.536.72 1.536 1.65 0 .93-.67 1.65-1.535 1.65-.866 0-1.536-.72-1.536-1.65 0-.93.67-1.65 1.536-1.65zm13.819 0c.866 0 1.535.72 1.535 1.65 0 .93-.67 1.65-1.535 1.65-.866 0-1.536-.72-1.536-1.65 0-.93.67-1.65 1.536-1.65z"/></svg><svg fill="none" viewBox="0 0 24 24" id="facebook" xmlns="http://www.w3.org/2000/svg"><path d="M4.382 0A4.373 4.373 0 000 4.382v15.236A4.373 4.373 0 004.382 24h8.258v-9.383h-2.481V11.24h2.48V8.354c0-2.267 1.467-4.349 4.844-4.349 1.367 0 2.378.132 2.378.132l-.08 3.154s-1.03-.01-2.156-.01c-1.218 0-1.413.561-1.413 1.493v2.466h3.666l-.16 3.378h-3.506V24h3.406A4.373 4.373 0 0024 19.618V4.382A4.373 4.373 0 0019.618 0H4.382z" fill="#000"/></svg><svg fill="none" viewBox="0 0 24 24" id="instagram" xmlns="http://www.w3.org/2000/svg"><path fill-rule="evenodd" clip-rule="evenodd" d="M7.053.072C8.333.013 8.74 0 12 0s3.668.014 4.946.072c1.279.058 2.151.262 2.915.557.8.303 1.525.775 2.125 1.386a5.862 5.862 0 011.383 2.124c.297.764.5 1.636.559 2.913C23.987 8.333 24 8.742 24 12c0 3.26-.014 3.668-.072 4.947-.058 1.277-.262 2.15-.559 2.913a5.887 5.887 0 01-1.383 2.126 5.885 5.885 0 01-2.125 1.383c-.764.297-1.636.5-2.913.559-1.28.059-1.688.072-4.948.072-3.26 0-3.668-.014-4.947-.072-1.277-.058-2.15-.262-2.913-.559a5.889 5.889 0 01-2.126-1.383 5.882 5.882 0 01-1.385-2.125c-.295-.764-.498-1.636-.557-2.913C.013 15.666 0 15.258 0 12c0-3.26.014-3.668.072-4.946.058-1.279.262-2.151.557-2.915.302-.8.775-1.526 1.386-2.125A5.882 5.882 0 014.139.629C4.903.334 5.775.131 7.052.072zm9.796 2.16c-1.265-.058-1.645-.07-4.849-.07s-3.584.012-4.85.07c-1.17.053-1.805.249-2.228.413-.56.219-.96.477-1.38.897a3.722 3.722 0 00-.897 1.38c-.164.423-.36 1.058-.413 2.229-.058 1.265-.07 1.645-.07 4.849s.012 3.584.07 4.85c.053 1.17.249 1.804.413 2.228.192.52.499.992.897 1.38.387.398.86.705 1.38.897.423.164 1.058.36 2.229.413 1.265.058 1.644.07 4.849.07s3.584-.012 4.85-.07c1.17-.053 1.804-.249 2.228-.413.56-.219.96-.477 1.38-.897.398-.387.705-.86.897-1.38.164-.424.36-1.058.413-2.229.058-1.265.07-1.645.07-4.849s-.012-3.584-.07-4.85c-.053-1.17-.249-1.805-.413-2.228a3.725 3.725 0 00-.897-1.38 3.723 3.723 0 00-1.38-.897c-.424-.164-1.058-.36-2.229-.413zm-6.382 13.467a4.002 4.002 0 004.364-6.53 4.003 4.003 0 10-4.364 6.53zM7.64 7.64a6.168 6.168 0 118.722 8.722A6.168 6.168 0 017.64 7.64zm11.897-.888a1.458 1.458 0 10-2-2.121 1.458 1.458 0 002 2.12z" fill="#000"/></svg><svg fill="none" viewBox="0 0 24 24" id="pinterest" xmlns="http://www.w3.org/2000/svg"><path d="M24 2.571V21.43A2.572 2.572 0 0121.429 24H8.27c.525-.879 1.2-2.143 1.468-3.177l.82-3.128c.429.82 1.682 1.51 3.016 1.51 3.97 0 6.825-3.648 6.825-8.18 0-4.345-3.546-7.596-8.11-7.596-5.68 0-8.69 3.808-8.69 7.96 0 1.929 1.029 4.329 2.668 5.095.252.118.38.064.44-.177.042-.182.267-1.077.363-1.49a.388.388 0 00-.09-.374c-.542-.66-.981-1.87-.981-3 0-2.904 2.196-5.71 5.941-5.71 3.23 0 5.496 2.2 5.496 5.35 0 3.558-1.794 6.022-4.135 6.022-1.291 0-2.256-1.066-1.95-2.378.37-1.565 1.087-3.252 1.087-4.382 0-2.84-4.044-2.449-4.044 1.339 0 1.162.39 1.955.39 1.955-1.681 7.115-1.933 7.206-1.585 10.318l.118.043H2.57A2.572 2.572 0 010 21.429V2.57A2.572 2.572 0 012.571 0H21.43A2.572 2.572 0 0124 2.571z" fill="#000"/></svg><svg viewBox="0 0 13 13" id="search" xmlns="http://www.w3.org/2000/svg"><path d="M5.56 11.118a5.526 5.526 0 003.402-1.173L12.017 13l.983-.983-3.055-3.054a5.525 5.525 0 001.174-3.404A5.566 5.566 0 005.559 0 5.566 5.566 0 000 5.56a5.566 5.566 0 005.56 5.558zm0-9.728c2.299 0 4.169 1.87 4.169 4.17 0 2.299-1.87 4.168-4.17 4.168S1.39 7.858 1.39 5.56c0-2.3 1.87-4.17 4.17-4.17z"/></svg></svg>